<svg xmlns="http://www.w3.org/2000/svg" width="720" height="720"><path d="M109.7 78h2.7 9 6.4 17.6 19H208h21.6 74 4.6 4.7 9.3 2.3 75H479h8.7 2.2 34.5H559 578 595h6.2 8.5 2.4c8 .1 15.3 2.3 21.7 7.4 7 7.5 8.2 14.8 8 24.7v2.7 9 6.4 17.6 19V208v21.6 74 4.6 4.7 9.3 2.3 75V479v8.7 2.2 34.5V559 578 595v6.2 8.5 2.4c-.1 8-2.3 15.3-7.4 21.7-7.5 7-14.8 8.2-24.7 8h-2.7-9-6.4-17.6-19H512h-21.6-74-4.6-4.7-9.3-2.3-75H241h-8.7-2.2-34.5H161c-6.3 0-12.5 0-18.8 0a3970 3970 0 0 1-17.2 0c-2 0-4.2 0-6.2 0a1035 1035 0 0 1-8.5 0h-2.4c-8-.1-15.3-2.3-21.7-7.4-7-7.5-8.2-14.8-8-24.7v-2.7-9-6.4-17.6-19V512v-21.6-74-4.6-4.7-9.3-2.3-75V241v-8.7-2.2-34.5V161 142 125v-6.2-8.5-2.4c.1-8 2.3-15.3 7.4-21.7 7.5-7 14.8-8.2 24.7-8z" fill="#5db5d7"/><path d="M493 153l3 .7a103 103 0 0 1 61.6 48.4c11.7 21.4 15.4 48 9.4 72l-.7 3c-7 25.8-24.6 48-47.8 61.2-23.3 12.7-51.5 15.6-77 8.7-13.7-4.2-25.7-10.6-36.4-20l-2.5-2a95 95 0 0 1-32.2-59.1c-2.2-30 3.2-57 22.8-80.6A101 101 0 0 1 493 153z" fill="#e16173"/></svg>